<svg width="100%" height="100%" viewBox="0 0 800 400" fill="none" xmlns="http://www.w3.org/2000/svg" role="img" aria-labelledby="previewTitle previewDesc" preserveAspectRatio="xMidYMid meet">
  <title id="previewTitle">Mobile Preview Simulator overview banner</title>
  <desc id="previewDesc">A dark banner showing a VS Code editor on the left and an iPhone preview on the right.</desc>
  <defs>
    <linearGradient id="previewBg" x1="32" y1="18" x2="768" y2="382" gradientUnits="userSpaceOnUse">
      <stop stop-color="#111111"/>
      <stop offset="1" stop-color="#0D0D0D"/>
    </linearGradient>
    <linearGradient id="accent" x1="98" y1="334" x2="394" y2="392" gradientUnits="userSpaceOnUse">
      <stop stop-color="#6366F1"/>
      <stop offset="1" stop-color="#3B82F6"/>
    </linearGradient>
    <linearGradient id="codeGlow" x1="0" y1="0" x2="1" y2="1">
      <stop stop-color="#6366F1" stop-opacity="0.24"/>
      <stop offset="1" stop-color="#3B82F6" stop-opacity="0.06"/>
    </linearGradient>
    <linearGradient id="phoneBody" x1="594" y1="82" x2="694" y2="314" gradientUnits="userSpaceOnUse">
      <stop stop-color="#23242B"/>
      <stop offset="1" stop-color="#09090B"/>
    </linearGradient>
    <linearGradient id="screenBg" x1="615" y1="103" x2="673" y2="285" gradientUnits="userSpaceOnUse">
      <stop stop-color="#FFFFFF"/>
      <stop offset="1" stop-color="#EFF4FF"/>
    </linearGradient>
    <filter id="drop" x="-20%" y="-20%" width="140%" height="140%">
      <feDropShadow dx="0" dy="20" stdDeviation="18" flood-color="#000000" flood-opacity="0.45"/>
    </filter>
  </defs>

  <rect x="8" y="8" width="784" height="384" rx="12" fill="url(#previewBg)"/>
  <rect x="8" y="8" width="784" height="384" rx="12" stroke="#1E2230"/>

  <text x="40" y="46" fill="#FFFFFF" font-family="Segoe UI, Arial, sans-serif" font-size="24" font-weight="700">Mobile Preview Simulator</text>
  <text x="40" y="70" fill="#A1A1AA" font-family="Segoe UI, Arial, sans-serif" font-size="12">Preview your local web app inside a polished mobile frame without leaving VS Code.</text>

  <rect x="40" y="92" width="470" height="218" rx="12" fill="#111318" stroke="#242938"/>
  <rect x="40" y="92" width="470" height="34" rx="12" fill="#141824"/>
  <rect x="40" y="114" width="470" height="12" fill="#141824"/>
  <circle cx="62" cy="109" r="4" fill="#2D3343"/>
  <circle cx="78" cy="109" r="4" fill="#2D3343"/>
  <circle cx="94" cy="109" r="4" fill="#2D3343"/>
  <rect x="120" y="101" width="132" height="16" rx="8" fill="#1C2130"/>
  <rect x="404" y="99" width="84" height="20" rx="8" fill="#151B28" stroke="#2C3446"/>
  <text x="419" y="113" fill="#D4D8E4" font-family="Segoe UI, Arial, sans-serif" font-size="10" font-weight="600">App.jsx</text>

  <rect x="56" y="142" width="438" height="152" rx="10" fill="#0F131C"/>
  <rect x="56" y="142" width="438" height="152" rx="10" fill="url(#codeGlow)"/>

  <g opacity="0.98">
    <text x="74" y="168" fill="#667085" font-family="Consolas, monospace" font-size="11">1</text>
    <text x="92" y="168" fill="#7DD3FC" font-family="Consolas, monospace" font-size="11">import</text>
    <text x="136" y="168" fill="#E5E7EB" font-family="Consolas, monospace" font-size="11">ThemeBtn</text>
    <text x="202" y="168" fill="#7DD3FC" font-family="Consolas, monospace" font-size="11">from</text>
    <text x="234" y="168" fill="#C084FC" font-family="Consolas, monospace" font-size="11">"./components/ThemeBtn"</text>

    <text x="74" y="192" fill="#667085" font-family="Consolas, monospace" font-size="11">2</text>
    <text x="92" y="192" fill="#7DD3FC" font-family="Consolas, monospace" font-size="11">const</text>
    <text x="128" y="192" fill="#EAB308" font-family="Consolas, monospace" font-size="11">themeMode</text>
    <text x="198" y="192" fill="#E5E7EB" font-family="Consolas, monospace" font-size="11">=</text>
    <text x="212" y="192" fill="#C084FC" font-family="Consolas, monospace" font-size="11">"light"</text>

    <text x="74" y="216" fill="#667085" font-family="Consolas, monospace" font-size="11">3</text>
    <text x="92" y="216" fill="#7DD3FC" font-family="Consolas, monospace" font-size="11">useEffect</text>
    <text x="156" y="216" fill="#E5E7EB" font-family="Consolas, monospace" font-size="11">(() =&gt; {"}"</text>

    <text x="74" y="240" fill="#667085" font-family="Consolas, monospace" font-size="11">4</text>
    <text x="92" y="240" fill="#E5E7EB" font-family="Consolas, monospace" font-size="11">document.querySelector(</text>
    <text x="256" y="240" fill="#C084FC" font-family="Consolas, monospace" font-size="11">"html"</text>
    <text x="290" y="240" fill="#E5E7EB" font-family="Consolas, monospace" font-size="11">).classList.add(themeMode)</text>

    <text x="74" y="264" fill="#667085" font-family="Consolas, monospace" font-size="11">5</text>
    <text x="92" y="264" fill="#E5E7EB" font-family="Consolas, monospace" font-size="11">return (</text>
    <text x="146" y="264" fill="#60A5FA" font-family="Consolas, monospace" font-size="11">&lt;ThemeProvider value={"{"} themeMode {"}"}&gt;</text>

    <rect x="90" y="278" width="144" height="4" rx="2" fill="#6366F1"/>
    <rect x="242" y="278" width="112" height="4" rx="2" fill="#3B82F6"/>
  </g>

  <g filter="url(#drop)">
    <rect x="579" y="83" width="120" height="246" rx="28" fill="url(#phoneBody)"/>
    <rect x="579" y="83" width="120" height="246" rx="28" stroke="#323748"/>
    <rect x="588" y="92" width="102" height="228" rx="22" fill="#000000"/>
    <rect x="598" y="104" width="82" height="204" rx="16" fill="url(#screenBg)"/>
    <rect x="628" y="97" width="22" height="5" rx="2.5" fill="#151823"/>
    <circle cx="659" cy="99.5" r="3" fill="#12151E"/>

    <rect x="598" y="104" width="82" height="22" rx="16" fill="#090B10"/>
    <text x="606" y="119" fill="#FFFFFF" font-family="Segoe UI, Arial, sans-serif" font-size="8" font-weight="700">9:41</text>
    <rect x="660" y="113" width="8" height="4" rx="2" fill="#FFFFFF"/>
    <rect x="671" y="111.5" width="7" height="7" rx="1.5" stroke="#FFFFFF" stroke-width="1.5"/>

    <rect x="605" y="136" width="68" height="13" rx="6.5" fill="#FFFFFF" stroke="#E4E7F0"/>
    <text x="620" y="145" fill="#6B7280" font-family="Segoe UI, Arial, sans-serif" font-size="6.5">localhost:5173</text>

    <rect x="606" y="160" width="66" height="112" rx="8" fill="#FFFFFF" stroke="#D9E1F1"/>
    <rect x="614" y="168" width="50" height="38" rx="4" fill="#1B2234"/>
    <circle cx="639" cy="187" r="10" fill="#F3F6FF"/>
    <rect x="614" y="218" width="40" height="6" rx="3" fill="#2C3245"/>
    <rect x="614" y="228" width="34" height="6" rx="3" fill="#2C3245"/>
    <rect x="614" y="242" width="18" height="6" rx="3" fill="#111827"/>
    <rect x="641" y="239" width="24" height="12" rx="4" fill="#3B82F6"/>
    <text x="647" y="247.5" fill="#FFFFFF" font-family="Segoe UI, Arial, sans-serif" font-size="5.5" font-weight="700">Buy</text>

    <rect x="613" y="286" width="52" height="12" rx="6" fill="#343843"/>
    <text x="624" y="294.5" fill="#FFFFFF" font-family="Segoe UI, Arial, sans-serif" font-size="6">localhost</text>
  </g>

  <path d="M518 192C540 192 549 192 566 192" stroke="#3B82F6" stroke-width="4" stroke-linecap="round"/>
  <path d="M552 180L570 192L552 204" stroke="#6366F1" stroke-width="4" stroke-linecap="round" stroke-linejoin="round"/>

  <text x="40" y="360" fill="url(#accent)" font-family="Segoe UI, Arial, sans-serif" font-size="28" font-weight="800">Mobile Preview Simulator</text>
  <text x="40" y="382" fill="#9CA3AF" font-family="Segoe UI, Arial, sans-serif" font-size="12">Wide README banner with editor mockup, iPhone preview, and polished marketplace styling.</text>
</svg>
